<svg width="240" height="240" viewBox="0 0 240 240" fill="none" xmlns="http://www.w3.org/2000/svg">
<g clip-path="url(#clip0)">
<path d="M151.011 51.2366H37.7528C16.9025 51.2366 0 68.1391 0 88.9894V202.248C0 223.098 16.9025 240.001 37.7528 240.001H151.011C171.862 240.001 188.764 223.098 188.764 202.248V88.9894C188.764 68.1391 171.862 51.2366 151.011 51.2366Z" fill="#FF0000"/>
<path fill-rule="evenodd" clip-rule="evenodd" d="M132.133 111.641H51.2344V125.124H132.133V111.641ZM132.133 138.607H51.2344V152.09H132.133V138.607ZM51.2344 165.573H105.167V179.056H51.2344V165.573ZM152.358 185.798L118.65 206.023V165.573L152.358 185.798Z" fill="white"/>
<path d="M239.998 51.236C239.998 22.9391 217.058 0 188.762 0C160.465 0 137.526 22.9391 137.526 51.236C137.526 79.5328 160.465 102.472 188.762 102.472C217.058 102.472 239.998 79.5328 239.998 51.236Z" fill="#0E8888"/>
<path fill-rule="evenodd" clip-rule="evenodd" d="M196.182 45.9777H206.069L188.766 63.2809L171.463 45.9777H181.35V31.1462H196.182V45.9777ZM171.463 73.1689V68.2249H206.069V73.1689H171.463Z" fill="white"/>
</g>
<defs>
<clipPath id="clip0">
<rect width="240" height="240" fill="white"/>
</clipPath>
</defs>
</svg>
